/* XPM */
static char *ad636f21a7ab4a00ae6ee058ae355946lL5dWM7tsPdbhKAE[] = {
/* columns rows colors chars-per-pixel */
"40 40 119 2 ",
"   c #141414",
".  c #6D6D6D",
"X  c #8F6126",
"o  c #946427",
"O  c #996627",
"+  c #956629",
"@  c #99662A",
"#  c #95682C",
"$  c #9E6A2C",
"%  c #A26C2C",
"&  c #A6722E",
"*  c #A9732E",
"=  c #B0752F",
"-  c #A56D30",
";  c #A67230",
":  c #A97331",
">  c #B27631",
",  c #B57934",
"<  c #BB7E35",
"1  c #C17F35",
"2  c #BB8036",
"3  c #C28236",
"4  c #C38339",
"5  c #C9873B",
"6  c #C7883B",
"7  c #CC893B",
"8  c #325FD6",
"9  c #3261D5",
"0  c #3465DB",
"q  c #3569DF",
"w  c #366DE2",
"e  c #3671E5",
"r  c #3870E6",
"t  c #3870E9",
"y  c #5477D1",
"u  c #5378D1",
"i  c #4695FC",
"p  c #55A7FC",
"a  c #56A8FD",
"s  c #8E8E8E",
"d  c #929392",
"f  c #9A9A9A",
"g  c #A3A3A3",
"h  c #ADADAD",
"j  c #B1B1AF",
"k  c #B6B6B6",
"l  c #B2B2B2",
"z  c gray72",
"x  c #B9B9B9",
"c  c gray73",
"v  c #BBBBBB",
"b  c #BABABC",
"n  c #BBBBBD",
"m  c #BDBBBC",
"M  c #BCBCBC",
"N  c gray74",
"B  c #BFBFBD",
"V  c #BDBDBF",
"C  c #BDBFBE",
"Z  c gray",
"A  c gray75",
"S  c #AEB9D5",
"D  c #AFBAD6",
"F  c #BFC1C0",
"G  c #C1C1C1",
"H  c #C2C0C1",
"J  c #C3C1C2",
"K  c gray76",
"L  c #C3C3C3",
"P  c gray77",
"I  c #C5C5C5",
"U  c #C6C6C6",
"Y  c gray78",
"T  c #C8C6C7",
"R  c #C6C8C5",
"E  c #C8C8C6",
"W  c #C9C7C8",
"Q  c #C7C9C8",
"!  c #C8C8C8",
"~  c #C8C8CA",
"^  c #CECECE",
"/  c #D0D0CE",
"(  c #CFD1D0",
")  c #D2D2D0",
"_  c #D1D3D2",
"`  c #D2D2D2",
"'  c LightGray",
"]  c gray83",
"[  c #D5D5D5",
"{  c #D6D4D5",
"}  c #D5D7D4",
"|  c #D4D6D5",
" . c #D7D7D5",
".. c gray84",
"X. c #D7D7D7",
"o. c #D1D1D1",
"O. c #D8D8D8",
"+. c gray85",
"@. c #DADADA",
"#. c gray86",
"$. c #DADBDD",
"%. c gainsboro",
"&. c #DDDDDD",
"*. c #DFDFDF",
"=. c #E3E3E1",
"-. c #E2E2E2",
";. c gray89",
":. c #E2E4E3",
">. c #E4E4E2",
",. c #E5E3E4",
"<. c #E3E5E4",
"1. c #E4E4E4",
"2. c gray90",
"3. c #E4E4E6",
"4. c #E5E5E7",
"5. c gray95",
"6. c #F3F3F3",
"7. c #F4F4F4",
"8. c gray96",
/* pixels */
"> > > > = = % @ @ @ o o O o @ o @ O % > = > = > * > > > > > = > = = > > = > > > ",
"& * * * * #                           & : : * & * * % * * * * * * & * * & * * * ",
": : ; : ; @   6.8.5.7.7.7.1.:.:.;.;.  % : : : : : : : : : : : : * * & * : : * * ",
"& * : * * $   5.5.7.8.7.7.>.1.1.;.<.  % * * : : * * * = * * * * * * = = * * * * ",
"> ; * 5 7 ,   6.7.5.7.7.5.1.;.;.,.;.  4 7 7 7 7 7 7 7 7 7 7 7 < < 1 7 7 3 2 2 2 ",
"%             6.7.8.7.7.8.;.;.>.;.<.            4 7 7 7 7 7 7 1 2 1 7 7 5 2 2 2 ",
"%   ;.1.1.;.,.;.1.:.1.1.1.~ ~ U W Q ,.<.1.1.4.  4 7 7 7 7 7 7 1 3 3 5 7 5 3 3 3 ",
"%   1.1.1.,.;.;.1.1.1.<.>.~ E E Q W <.,.1.1.1.  4 7 7 7 7 7 7 7 7 7 7 7 7 5 7 7 ",
"$   ;.=.;.1.;.:.1.1.1.1.1.~ U ~ T ~ 1.1.=.1.1.  < 7 7 7 7 7 7 7 7 7 7 7 7 7 7 7 ",
"%   ;.=.1.;.1.1.,.;.;.1.:.E ~ E ~ Y ,.1.1.1.1.  , 7 7 7 7 7 7 7 7 7 7 7 7 7 7 7 ",
"%   =.,.>.;.1.,.>.1.;.1.>.~ ~ T E U 1.1.=.1.>.  , 7 7 7 7 7 7 7 7 7 7 7 7 7 7 7 ",
"$   ~ ~ ~ E ~             i i i i i a a p a p   , 7 7 7 7 7 7 7 7 7 7 7 7 7 7 7 ",
"%   E Q R ~ E     - $     i i i i i a p p a p   , 7 5 7 5 5 5 5 7 6 7 7 5 5 7 7 ",
"+   ~ E ~ Q ~     ; $     i i i i i a a a p a   $ & * * * : : * & * & & * * * * ",
"+   R U E W Q             i i i i i a a a a p             $ * * * * * * & * * * ",
"%             r r e e r w Y ~ ~ R ~ r r e r r Q Y Y ~ ~   % > > > > > > > > > = ",
"2             r t r r r r Y W Y W W e t r r r E E U ~ ~   < 7 7 7 7 7 7 7 7 7 7 ",
"7 7 7 7 7 <   r e e t r e U Y U U U t e r r e U ~ U U E   < 7 7 7 7 7 7 7 7 7 7 ",
"7 > > > > $   r w r r e e G L U U L e e e r r U P U U U   $ > > = , 5 7 7 7 7 7 ",
",             w w w w w w G L U G U w w w r w G P G G G             , 7 7 7 7 7 ",
"<   w w w w w B G G G G A O.%.%.%.%.%.;.%.%.%.q w q q w G G G G H   < 7 7 7 7 7 ",
",   q q 0 w 0 S B F C C C $.%.%.#.$.O.%.$.%.O.w q q w q C B C G B   = 7 7 7 7 7 ",
",   q 0 0 w 0 m m C C Z m O.O.O.O.O. .O.O.O.O.q 0 0 0 q c m m C m   ; < < < 2 2 ",
",   0 0 0 0 0 c c v v m m ..O... ...O... .....0 0 0 0 q m b c c S             : ",
">   0 0 0 0 0 z z b z z z  .O.{ ......' ......D D D D D y y y y y d d d d d   - ",
"#   0 0 0 9 0 c z z m z z ' ' ' ' ....' ..' ..' ..| ' ..9 0 0 0 0 c z k k k   X ",
"#   9 9 9 9 9 k b z k b z ' ' ' _ _ ' _ ' ' ' ' _ _ _ ' 9 8 8 8 9 k k k k k   + ",
"O   9 9 9 8 9 l l z l l l o.o.' o.o._ ^ ( ^ ^ ^ ^ _ ^ o.8 8 8 8 8 k l l l l   + ",
"%   8 8 8 9 8 k l l k l l ^ ^ o./ o.o.o.^ ^ o.^ o.o.^ ^ 8 8 8 8 8 l l l k k   % ",
"%   f f f f f l h l l l l l l l j j l j l l l l j j l l j j l l j f g f f f   % ",
"%   f f f f f h h h l h h l l h h j j l h h l h j l h h j h h h j f f f f f   * ",
"%   d f d f f h h h h h h h h h h h h h h h h h h h h h h h h h h d f d d d   , ",
"%   d d d d d h h h h h h h h h h h h h h h h h h h h h h h h h h d d d d d   , ",
"$   . . . . . g g g g g g g g g g g g g g g g g g g g g g g g g g . . . . .   = ",
"$             d d d d d d d d d d d d d s d d d d d d d d d d d d             , ",
": * & 4 5 >   s d d d d d d d d d s d d d s d s d s d s s s d d d   : 7 5 5 5 7 ",
"= & * 6 7 <   s s s s s s s s s s s s s s s s s s s s s s s s s s   , 7 7 7 7 7 ",
"* * & = * O   s s s s s s s s s s s s s s s s s s s s s s s s s s   @ : = * = * ",
"; * ; * * O                                                         + : * * * & ",
"* * * * * & o o X X X X X X X X X X X X X o X X X X X X X X X X X X $ : * * * * "
};
