/* XPM */
static char *_ba8b3b9096b4e68af6ff3da4a5e3a1aAgMHm80lpAyYovXJ[] = {
/* columns rows colors chars-per-pixel */
"40 40 94 2 ",
"   c #36240F",
".  c #3A2711",
"X  c #452E14",
"o  c #4C3316",
"O  c #5A3D1A",
"+  c #63431C",
"@  c #69471D",
"#  c #6C4A1E",
"$  c #704C1F",
"%  c #6F4B20",
"&  c #754E22",
"*  c #765022",
"=  c #795123",
"-  c #655E56",
";  c #6C665E",
":  c #6E6760",
">  c #746E67",
",  c #757069",
"<  c #7C766F",
"1  c #815623",
"2  c #835924",
"3  c #8B5D25",
"4  c #855928",
"5  c #8D5F28",
"6  c #8C6027",
"7  c #8E6128",
"8  c #926227",
"9  c #95652A",
"0  c #99672B",
"q  c #97682A",
"w  c #9C6A2C",
"e  c #A36D2D",
"r  c #A86F2D",
"t  c #A6722E",
"y  c #AA732E",
"u  c #B1752F",
"i  c #A36E30",
"p  c #A77331",
"a  c #A97231",
"s  c #B27632",
"d  c #B57A34",
"f  c #BB7D36",
"g  c #BE7E38",
"h  c #C17F35",
"j  c #BD8036",
"k  c #BE8039",
"l  c #C08235",
"z  c #C28235",
"x  c #C28137",
"c  c #C48237",
"v  c #C18139",
"b  c #C0813A",
"n  c #C48338",
"m  c #C48439",
"M  c #C78538",
"N  c #C58638",
"B  c #C4843B",
"V  c #C7863A",
"C  c #C88439",
"Z  c #C88639",
"A  c #C98739",
"S  c #C8873A",
"D  c #C9863C",
"F  c #CA873C",
"G  c #CB893B",
"H  c #CC8939",
"J  c #CC893A",
"K  c #CC893B",
"L  c #CD883C",
"P  c #8E8A86",
"I  c #928F8A",
"U  c #95918C",
"Y  c #97938F",
"T  c #99958F",
"R  c #9B9B9B",
"E  c gray61",
"W  c #A0A0A0",
"Q  c #B3B3B3",
"!  c #B4B4B4",
"~  c #BAB7B4",
"^  c #B9B8B7",
"/  c #BDBCB9",
"(  c #C0C0C0",
")  c #C6C3C1",
"_  c #C6C4C1",
"`  c #C6C6C5",
"'  c #C8C8C8",
"]  c #DFDEDD",
"[  c #E0DFDE",
"{  c #E1E0DF",
"}  c #EBEBEB",
"|  c #F4F3F2",
" . c #F4F4F4",
".. c #FDFDFD",
/* pixels */
"s u s s u s s s s s u y y y y y y t r r r r r r y y y u u u u u s s u s s u s s ",
"t y t y y y t y y y t t t e w w w 8 q 8 9 9 9 w w e w e t t y y t y y t y y p t ",
"a p a a y a y p t e p e w w w q 8 8 6 6 3 7 8 8 9 w w e e t p a y a y y a a a y ",
"y t t y y y y y y y e e w w 9 6 3 2 1 1 1 1 2 2 3 0 0 e r e r r y y y y y y y y ",
"s p p F K L L F F k b g f s a o ; ; : : : ; > ; o a s f g v v f f x G K x f j j ",
"u a t F K K G V B v k f s a w o | ............| o e p s d g V s d x G K N j j k ",
"s y t n V n n V v g f s i i 9 X | ............| X 9 w a s f g d d x Z K A j x x ",
"s t t f f f f x g f s w = & &   | ............|   % * 1 0 a f x c N G Z K G K K ",
"u y a j f d f g f a a # < T T T ` ' ' ' ' ' ' ` Y Y T < @ a s f g v V Z Z K K L ",
"s y t k v h g f s r i O _ ......W R R R R R R W ......_ + w i s f x x Z Z G K K ",
"s t t V V h g d a w 9 O _ ......W R R R R R R W ......_ O 9 i a s g v Z Z Z L K ",
"s p t n x g d w % + O . _ ......W R R R R R R W ......_ . O O % w d g v Z Z L L ",
"s t t v j d a 4 < ) _ _ ^ ! ! ! E R R R R R R E ! ! ! ^ ` ) _ < 4 a g g v F V Z ",
"t t t e w 0 8 @ Y ......! E R R R R R R R R R R R R E ! ......T # 8 9 w e e t y ",
"t t t e w 9 6 @ Y ......! E R R R R R R R R R R R R E ! ......T @ 3 9 w w p t t ",
"s s y y e w 8 @ Y ......! E R R R R R R R R R R R R E ! ......T @ 8 0 r y a u d ",
"K Z Z x g s e # T ......Q R R R R R R R R R R R R R R ! ......T = a d f v V G G ",
"K Z V v g s w % T ......! R R R R R R R R R R R R R R ! ......T = i s g x V Z L ",
"K G V x g y i & T ......! R R R R R R R R R R R R R R ! ......T = i s f v Z Z L ",
"K Z V v f d i = T ......! R R R R R R R R R R R R R R ! ......T = i a f v V Z L ",
"K G V x g s e = T ......Q R R R R R R R R R R R R R R ! ......T = i s g x V A G ",
"K Z V x g a i = T ......Q R R R R R R R R R R R R R R Q ......T = e a g k V A V ",
"L Z Z x g s e = T ......Q R R R R R R R R R R R R R R Q ......T = i p t d d d j ",
"L Z Z c g s r = Y  .....Q R R R R R R R R R R R R R R Q  .....T * i t u d d j j ",
"c x g f s a e * I ......Q R R R R R R R R R R R R R R Q  .....I * w i p s s j d ",
"y t t w w 9 7 @ I .. . .Q R R R R R R R R R R R R R R Q  . . .I @ 6 9 w e t t p ",
"t t t t w w 7 @ I  . . .Q R R Y R R R R R R R R R R R Q  . . .Y @ 9 w w e e t p ",
"y t t w w w 9 @ , / / / Q Q Q Q E R R R R R R R Q Q Q Q / / ^ , # 7 w w e t t p ",
"s t t v k f s w % O O . /  .}  .W R R R R R R E  . . ./ . O + @ w s f k j f d f ",
"s p t n V x f s a w 9 O ^ }  . .W R R R R R R W } }  .^ O 9 w a s g g c x j z f ",
"s y t V Z c k f s a w + ~ } }  .W R R R E R E W  .} } ~ O i a d d c c Z x d k x ",
"s t a V Z V k g f s r @ , I P P / ( ( ( ( ( ( / P P P > + w e f g c V V G G K K ",
"u t a G G N V V g f s w = = &   { } } } } } } [   O + $ 8 e y g c V V Z K K K K ",
"s y p Z G G M x v g f s a w 9 X [ } } } } } } [ X $ 2 8 r y s x V Z Z K K K K K ",
"a t p G H G j j s k k s s a w o [ [ } [ } } { [ X 2 6 r d x z z Z Z K K K K K K ",
"s a p Z H G N j f g x k f s a o - - ; ; - - - - o 6 8 y j c M N Z K K K K K K K ",
"u t y Z K K G j f x V x g f s a r w q 8 q q w t e 8 w y j N G M L L L K K K K K ",
"y p t u u y y y y y y e e e w 0 q 8 8 8 8 8 8 8 w w w r y y y y y y y y u y y y ",
"p y t p t p p p y y t t e e e w 8 q q 8 8 w q q w w e e r e y t a y y y y t y t ",
"y t y y t y y y t y y y e e e e e w e w w w w e w e t t t y y y y y t y y y y y "
};
