/* XPM */
static char *feadc89512824c20c800893d8dd93256HarnZRFAE1yS9ABQ[] = {
/* columns rows colors chars-per-pixel */
"40 40 60 1 ",
"  c #A7732F",
". c #A7742E",
"X c #A8722D",
"o c #A8732D",
"O c #AA732D",
"+ c #AC732D",
"@ c #AD732E",
"# c #A9742F",
"$ c #AD742E",
"% c #AD772F",
"& c #AE772F",
"* c #B4772F",
"= c #A77330",
"- c #A57430",
"; c #A87230",
": c #A87331",
"> c #AD7530",
", c #AF7632",
"< c #B37630",
"1 c #B47731",
"2 c #B07830",
"3 c #B47932",
"4 c #B37A34",
"5 c #B77D34",
"6 c #B67D36",
"7 c #BE7F33",
"8 c #BB7D34",
"9 c #BA7F36",
"0 c #BD7F36",
"q c #BB7F38",
"w c #BE7F39",
"e c #C07F35",
"r c #BB8034",
"t c #BA8035",
"y c #BD8034",
"u c #BD8036",
"i c #BA8038",
"p c #BF8239",
"a c #C28135",
"s c #C08235",
"d c #C38136",
"f c #C48237",
"g c #C18239",
"h c #C38338",
"j c #C38439",
"k c #C78538",
"l c #C4843B",
"z c #C7843B",
"x c #C98639",
"c c #CD873B",
"v c #C9873D",
"b c #C7883B",
"n c #CB893B",
"m c #CC8939",
"M c #CD893B",
"N c #CE883A",
"B c #CB893C",
"V c #CC883C",
"C c #CC893C",
"Z c #CC883D",
/* pixels */
"<<<<<<<<**@$>$$**<<<*<<<<<*<<<<<<<<<<<<<",
"        .#-##:  -   :;     ;=         ==",
";;;;;;;;###-### XX==-;:-=;;;;;=; ;; ;;;X",
"X  @$$X@$#$$$o$@@@ @$$$$@X@@@@@X@#@$@X#@",
"< =vnZZZnZmZmZZBZZBZmZmZZZZZZZc0tyZZgtty",
"< =BmmnZnnZCBBnZBcnZBBnnBBmmnBn0rdZmxtyr",
"<=XlzzxmnMnnZZZmBcBmZZmZZmZZmZBdhdZmzdzh",
"< X9t0dZMnnnZmmZZmmZZmZmmZmZmxnnmZmxmnCN",
"< ;9w0dcmmZmBmZmmmZmmZmmmZZmZnnncmBZmZnm",
"<  zzxxBcncZcmmZmmzgfgggzmmZmZnnZmZmZmMn",
"< XvZZnBZmnmZZmZZZd0090idmmZnMnMmZmBmnnM",
"* #vmZxBmZmZmZmBZmd99009ymZmMnMnncZBZnnn",
"<--vznBBZBBvvvvxnBp9999twvvvnBxBvvxBvvvx",
"  ;X-XX;#-X;    ;XX XX;XX;XX##:-XX;;XXX#",
"    X;X;.=X.X-; :;;X    ;    =#   :X;-##",
"1111312$$>>><<3*:;><1111111113<<11311152",
"mZmZmmlyt00ymcnd#XymmZmZmmnnMNnmZmZmZnnM",
"ZmZmmvvqt999mZmg-XeZZBZmnZMnnMnMmZmZnnnn",
"nnmZmmmxzzxzmZxf;-eZZcZZnnnMMnMnZmBcnmNC",
"nnZmZZZmmnZcmZnd:;eZBcmmnnMnnMnMmZmmnNCZ",
"MnMncmZZmmZZmZmd..wccnmZZmmZMnMnZmmZZmZm",
"nMnMZmcmmZcmmZZz==wBZZZmmZZmnMnMmvZZZZZm",
"mmnmZmcmmmnmmmxd; 309900fmmNmnmmmB09yw98",
"ZmmmZmmBcZZmZZm0==4t0909dZNZmmmmxB009900",
"zhxdggfzhgzdzdjp-#268666wgdjjjdzjg669565",
"X#:X.. . #. ..; X#;:#X#XX#:XX:..;X#.=X #",
"::##:; XX:;X-XX#;:X;. ;:; X ;X  # :X :#:",
"#XX:#X # #: X#::X#.#;X;X##:#: #X; # X; X",
"*  zBxlvvxvv09tyxBznvxvvp X8xnzzxvxvj99p",
">  BBxZmZZcm0itdnZBnZZcmg =9BZZBcZBBg00y",
"1X;ZmmmZmmZm8y0dmmncmmZmgX=9nBmmmcmcz0yy",
"3-;cZmmZZmmmZmZncncnmZmxzX=*0pymZmmmnnZm",
"1==xcnccBmmcnnmZZmZmZnmZvXX3000mmZZmmZmZ",
"*==vZmnZZmnnmcZmmZmZnnmmg#;3dd0mZmBcZmmZ",
">X;BZmlytvcnmZmZmBZZnnnZg#:tmZZZmZmZmZZZ",
">==xmmvtplnnZmZmcZmmnMmmd:X0ZmcmZmZmcZmm",
">=XZmnzyykmmmZnmmmZmmnmnj -9mmmZmZmcxmmm",
";=X$$$$X#$@@$$$$@@$@@@@@>XX$@@$$$$@@$$$$",
"#X:X X# X#. .#::X#X#;#X#X:#X;;:X##.o;#X#",
"X###X#X##XOO#+###X#X#X#X:XX#XXXX##  :X#X"
};
