/* XPM */
static char *_0f9d3e04188441bb7acccabe73e0722csnJ1eTSjKRCIx5y[] = {
/* columns rows colors chars-per-pixel */
"40 40 126 2 ",
"   c #000000",
".  c #121212",
"X  c #3E362D",
"o  c #3E3832",
"O  c #402C14",
"+  c #403425",
"@  c #6F4417",
"#  c #6F4419",
"$  c #704417",
"%  c #704518",
"&  c #5B532C",
"*  c #35354F",
"=  c #38364E",
"-  c #50424F",
";  c #674F4F",
":  c #65504F",
">  c #4D496C",
",  c #9E6E2F",
"<  c #966D37",
"1  c #9D6E32",
"2  c #956D3A",
"3  c #9B6F3B",
"4  c #9D7034",
"5  c #9E753F",
"6  c #A46522",
"7  c #A16E2F",
"8  c #A4712E",
"9  c #A8732D",
"0  c #B1752F",
"q  c #A16F31",
"w  c #AA6F33",
"e  c #A47132",
"r  c #AB7332",
"t  c #AF7A36",
"y  c #A3763E",
"u  c #A8773D",
"i  c #AE7838",
"p  c #B17631",
"a  c #B37B37",
"s  c #B37C3C",
"d  c #BA7F3E",
"f  c #926F43",
"g  c #8F724C",
"h  c #917046",
"j  c #9F7746",
"k  c #92734D",
"l  c #9D774A",
"z  c #9C794D",
"x  c #8F7551",
"c  c #927653",
"v  c #967854",
"b  c #9B7A52",
"n  c #917658",
"m  c #917A5B",
"M  c #9D7E59",
"N  c #A27542",
"B  c #A97742",
"V  c #AE7C43",
"C  c #A67D4E",
"Z  c #A97D4A",
"A  c #B17E43",
"S  c #A47E52",
"D  c #A17F59",
"F  c #917E60",
"G  c #BD813D",
"H  c #C3853C",
"J  c #C0843C",
"K  c #C6863C",
"L  c #C2833B",
"P  c #C98739",
"I  c #C9873B",
"U  c #CA883A",
"Y  c #BE8341",
"T  c #A19446",
"R  c #B49241",
"E  c #A38154",
"W  c #A38056",
"Q  c #A58054",
"!  c #A48255",
"~  c #A58056",
"^  c #A48157",
"/  c #A38054",
"(  c #A38058",
")  c #A38259",
"_  c #A1815A",
"`  c #A3815B",
"'  c #A2825C",
"]  c #A3825F",
"[  c #A4825D",
"{  c #A3815A",
"}  c #948067",
"|  c #96866F",
" . c #9F876F",
".. c #98866E",
"X. c #A28563",
"o. c #A08567",
"O. c #A18766",
"+. c #A28463",
"@. c #A38968",
"#. c #A28A6E",
"$. c #A38B6F",
"%. c #A38B71",
"&. c #A48E76",
"*. c #AB9E7B",
"=. c #F7E36A",
"-. c #F7E26B",
";. c #F6E36B",
":. c #F7E26D",
">. c #F7E26B",
",. c #F8E26B",
"<. c #F8E26B",
"1. c #5E5B8A",
"2. c #5F5C89",
"3. c #5E5C8B",
"4. c #5F5C8B",
"5. c #5F5B8D",
"6. c #5F5C8B",
"7. c #615B8B",
"8. c #605D8C",
"9. c #615C8B",
"0. c #9D9D9D",
"q. c #9E9AE7",
"w. c #A099E6",
"e. c #A099E7",
"r. c #A099E7",
"t. c #A19AE8",
/* pixels */
"0 r r r w e r w e e e e 4 8 e e e e e u e e r r r r p 0 0 0 p r r e r r r r 9 0 ",
"e e 1 < 2 2 2 2 2 2 2 2 2 2 2 2 2 2 2 2 2 < 2 < 1 e q e e 8 e 1 1 2 < < < 1 w 7 ",
"e 1 < 2 h h g g k k k k k k g k k g g g k k h f 2 1 1 e w q 1 < 2 f f f 2 < 1 7 ",
"7 1 2 5.3.3.3.5.3.3.3.3.q.r.q.t.q.t.t.q.9.3.9.3.. 2 1 q 7 q 1 < O # # $ @ 2 < 7 ",
"r 2 f 3.5.3.3.3.8.3.3.9.r.r.q.r.t.t.r.r.3.7.3.9.. Z A A J G A j O @ @ @ @ l u a ",
"r 2 f 3.3.3.3.7.7.3.9.3.r.r.r.r.r.q.r.r.3.3.3.9.. ~ Z A d A V l O @ # @ @ z y a ",
"r 2 f 3.3.3.3.7.7.3.3.3.r.r.r.r.r.r.r.r.7.7.3.3.. O.) Z A A Z z O $ @ @ @ z y a ",
"r 1 2 = = = = > 3.3.7.7.r.r.r.r.r.r.r.r.3.3.3.9.= = = = . Z Z ~ O @ @ @ % S A G ",
"r 1 < j z M  .= 3.3.3.3.r.r.r.r.r.r.r.r.7.3.3.3.9.3.3.3.. C Q Q O @ @ @ @ S A d ",
"p e 1 s B C ] = 3.3.7.3.r.r.r.r.r.r.r.r.3.3.7.7.9.3.9.3.. Q S ~ O @ @ @ @ S A Y ",
"0 8 w d d V E = 3.7.3.3.r.r.r.r.r.r.r.r.3.7.3.3.3.3.9.3.. W Q ~ O @ @ @ @ S V G ",
"0 e 8 L d A C = 3.3.3.7.r.r.r.r.r.r.r.r.3.3.7.3.9.3.3.9.. W E ) O @ @ @ @ S V d ",
"0 8 e J G Y S = 9.3.9.3.,.=.-.-.        -.-.-.-.        . ) S M O @ @ @ @ S Z G ",
"8 8 9 8 < 2 g = 9.3.9.3.=.=.-.-.        =.:.-.-.        . k k n O @ @ @ @ k 2 1 ",
"8 9 9 8 1 2 g = 3.3.9.3.:.:.=.=.        =.=.:.=.        . k k x O @ @ @ @ h 2 1 ",
"p 0 a r e 4 k = 9.3.3.9.=.=.=.:.        :.=.=.:.        . v v v O @ @ @ $ c 3 r ",
"U P H L G V S & T T T T =.=.=.:.,.:.=.=.-.-.-.-.-.-.=.:.. D ~ ] O @ @ @ @ S V G ",
"U H L G V C M & T T T T :.:.=.=.=.=.=.:.-.-.-.-.:.-.-.-.. +.) +.O @ @ @ $ D A J ",
"H J d A Z S #.& T T T T -.-.:.=.-.-.-.-.-.-.-.-.-.,.:.-.. #.@.%.O @ @ @ $ S B G ",
"H G s + + X + & T T T T -.-.=.=.-.-.-.-.-.-.-.-.-.=.-.-.. o o o O @ @ @ @ S A G ",
"L Y Z 3.9.3.7.3.3.3.7.3.r.r.r.r.r.r.r.r.r.r.r.r.3.3.9.3.3.7.3.3.*.-.-.-.;./ V Y ",
"G s C 3.3.3.9.3.7.3.7.3.r.r.r.r.r.r.r.r.r.r.r.r.3.9.3.9.3.3.9.3.*.=.-.-.=.M Y G ",
"G s S 3.3.9.3.3.3.9.3.3.r.r.q.t.r.r.r.r.r.r.r.r.9.3.9.3.3.3.7.9.*.:.:.=.=.b 5 t ",
"d V S 3.9.3.7.3.9.3.3.7.r.r.r.t.r.r.r.r.r.r.r.r.3.9.3.3.9.9.3.3.*.-.=.=.=.b y i ",
"a B b =.=.=.:.R @ @ @ @ 6 6 6 6 6 6 6 6 0.0.0.0.@ @ @ % . . . . O $ # @ @ b 5 r ",
"1 3 g =.:.=.-.R @ @ @ @ 6 6 6 6 6 6 6 6 0.0.0.0.@ @ @ @ . ..} | O @ # @ @ g 2 1 ",
"4 2 h =.-.-.-.R @ @ @ @ 6 6 6 6 6 6 6 6 0.0.0.0.@ @ @ % . m m } O @ @ @ @ k 2 1 ",
"e < f =.-.-.-.R @ @ @ # 6 6 6 6 6 6 6 6 0.0.0.0.@ @ @ @ . m g x O $ @ @ @ k 2 1 ",
"9 < 2 . . . . = 4.4.4.4.4.4.8.2.3.9.3.3.3.9.3.3.9.3.3.3.. _ b ) O # # @ $ b N i ",
"r , 2 Z S +.&.= 4.4.4.4.4.4.4.2.9.3.3.9.9.3.3.9.3.3.3.9.. ! S ) O % % @ $ b y i ",
"r 1 < Z C ] #.= 4.4.4.4.4.4.2.2.9.3.9.2.9.3.3.9.9.3.9.3.. D Q ) O @ @ @ @ z y i ",
"r 1 < Z D +.&.= 4.4.4.4.4.4.9.3.3.9.3.3.3.9.3.3.9.3.3.9.. b b ) O @ @ @ @ Q V G ",
"r 1 2 = = = = - ; : ; ; 3.3.3.9.9.3.3.9.2.8.3.9.: : ; : . b z ) O @ @ @ $ E B G ",
"r < f 4.7.3.7.; @ @ @ @ 9.3.9.3.3.9.9.3.3.3.9.3.$ % @ % . b z ) O @ @ @ $ S Y G ",
"7 2 h 5.7.3.3.; @ @ @ @ 3.3.3.3.3.3.3.3.3.9.2.3.@ @ $ @ . ~ C W O @ @ @ @ S s G ",
"e < f 3.3.3.3.; @ @ @ @ 9.9.3.9.9.3.9.9.9.3.8.3.% @ @ @ . C Z S O @ @ @ $ Z A G ",
"e < 2 5.4.4.7.; $ $ $ $ 3.9.9.3.9.9.3.9.9.9.9.3.$ # @ @ . Z V Z O @ $ $ $ V d L ",
"8 4 2 2 f k k k k k k k k k k k k k k k k k k k k g h f 2 1 1 1 2 f h f 2 1 q 7 ",
"8 8 1 1 < 2 < 2 2 2 2 2 2 2 < 2 2 2 2 2 2 2 2 2 < < 2 < 1 1 1 1 1 1 2 2 1 1 e 8 ",
"8 8 8 e 1 1 1 q 1 8 , 1 , , 1 8 , , 7 4 , , 1 , 4 , , 7 e e , 7 q 1 1 7 7 e 8 8 "
};
