/* XPM */
static char *result[] = {
/* columns rows colors chars-per-pixel */
"40 40 29 1 ",
"  c #492C14",
". c #4D2F14",
"X c #523216",
"o c #533316",
"O c #543317",
"+ c #563317",
"@ c #563416",
"# c #573416",
"$ c #583517",
"% c #593517",
"& c #583518",
"* c #593518",
"= c #593619",
"- c #5B3718",
"; c #5A3619",
": c #5D3719",
"> c #5C3819",
", c #5F3819",
"< c #603819",
"1 c #60391A",
"2 c #613A1B",
"3 c #623B1B",
"4 c #673C1C",
"5 c #683D1B",
"6 c #683D1C",
"7 c #6A3E1C",
"8 c #6B3F1D",
"9 c #6B3E1E",
"0 c #6C3F1D",
/* pixels */
" .......................................",
".XXXXXXXXXXXXXXXXXXXXXXXXXXXXXXXXXXXXXXX",
".XXXXXXXXXXXXXXXXXXXXXXXXXXXXXXXXXXXXXXX",
".XXXXXXXXXXXXXXXXXXXXXXXXXXXXXXXXXXXXXXX",
".XXXXO&&&&-::::::::::::::::::>$&&&&#XXXX",
".XXXX@,,,,40000000000000000007<,,,,-XXXX",
".XXXX@,,,,40000000000000000007<,,,,-XXXX",
".XXXX@,,,,40000000000000000007<,,,,-XXXX",
".XXXX@,,,,40000000000000000007<,,,,-XXXX",
".XXXX*777790000000000000000000777772XXXX",
".XXXX=000000000000000000000000000003XXXX",
".XXXX=000000000000000000000000000003XXXX",
".XXXX=000000000000000000000000000003XXXX",
".XXXX=000000000000000000000000000003XXXX",
".XXXX=000000000000000000000000000003XXXX",
".XXXX=000000000000000000000000000003XXXX",
".XXXX=000000000000000000000000000003XXXX",
".XXXX=000000000000000000000000000003XXXX",
".XXXX=000000000000000000000000000003XXXX",
".XXXX=000000000000000000000000000003XXXX",
".XXXX=000000000000000000000000000003XXXX",
".XXXX=000000000000000000000000000003XXXX",
".XXXX=000000000000000000000000000003XXXX",
".XXXX=000000000000000000000000000003XXXX",
".XXXX=000000000000000000000000000003XXXX",
".XXXX=000000000000000000000000000003XXXX",
".XXXX=000000000000000000000000000003XXXX",
".XXXX=000000000000000000000000000003XXXX",
".XXXX=000000000000000000000000000003XXXX",
".XXXX$555570000000000000000008655551XXXX",
".XXXX@,,,,40000000000000000007<,,,,-XXXX",
".XXXX@,,,,40000000000000000007<,,,,-XXXX",
".XXXX@,,,,40000000000000000007<,,,,-XXXX",
".XXXX@,,,,40000000000000000007<,,,,-XXXX",
".XXXXo####%;;;;;;;;;;;;;;;;;;;#####+XXXX",
".XXXXXXXXXXXXXXXXXXXXXXXXXXXXXXXXXXXXXXX",
".XXXXXXXXXXXXXXXXXXXXXXXXXXXXXXXXXXXXXXX",
".XXXXXXXXXXXXXXXXXXXXXXXXXXXXXXXXXXXXXXX",
".XXXXXXXXXXXXXXXXXXXXXXXXXXXXXXXXXXXXXXX",
".XXXXXXXXXXXXXXXXXXXXXXXXXXXXXXXXXXXXXXX"
};
